<?xml version="1.0" encoding="utf-8"?>
<!-- Generator: Adobe Illustrator 27.1.1, SVG Export Plug-In . SVG Version: 6.00 Build 0)  -->
<svg version="1.1" xmlns="http://www.w3.org/2000/svg" xmlns:xlink="http://www.w3.org/1999/xlink" x="0px" y="0px"
	 viewBox="0 0 400 300" style="enable-background:new 0 0 400 300;" xml:space="preserve">
<style type="text/css">
	.st0{fill:none;stroke:#000000;stroke-width:4;stroke-miterlimit:10;}
	.st1{fill:none;}
</style>
<g id="Layer_2">
</g>
<g id="Layer_1">
	<path class="st0" d="M207.3,242.1h-6.1c-41.2,0-74.7-33.4-74.7-74.7v-44.7c0-41.2,33.4-74.7,74.7-74.7h6.1
		c41.2,0,74.6,33.4,74.6,74.7v44.7C282,208.7,248.6,242.1,207.3,242.1z"/>
	<g>
		<path class="st1" d="M213.3,192.4c0,4.4-1.8,8.3-5.4,11.6c-3.6,3.3-8.5,4.9-14.6,4.9c-5.3,0-10.2-1.2-14.7-3.6
			c-4.5-2.4-7.8-5.3-10-8.9c-0.7-1.1-1.4-2.5-1.9-4h4.3c0.3,0.7,0.7,1.4,1,2c1.8,2.9,4.6,5.5,8.4,7.5c3.9,2.1,8.2,3.1,12.9,3.1
			c5.2,0,9.1-1.3,12-3.9c2.8-2.5,4.1-5.3,4.1-8.6c0-0.1,0-0.1,0-0.1c1.4-0.1,2.7-0.1,4-0.3C213.3,192.1,213.3,192.2,213.3,192.4z"/>
		<path class="st1" d="M159.8,136c0,4.1,0.9,7.9,2.8,11.4c1.8,3.3,4.3,6.3,7.7,9v5c-0.7-0.5-1.3-0.9-1.9-1.4
			c-4-3.2-7.2-6.8-9.3-10.7c-2.2-4-3.3-8.5-3.3-13.3c0-8.3,3.2-15.6,9.5-21.5c1.5-1.4,3.2-2.7,4.9-3.8v4.8c-0.8,0.6-1.5,1.2-2.2,1.9
			C162.5,122.6,159.8,128.8,159.8,136z"/>
		<path class="st1" d="M226.3,171.7c-1,0.9-2.1,1.6-3.2,2.3c-1.8-3.2-4.2-6-7.3-8.4c-3.4-2.7-9.8-6.6-19.2-11.6
			c-1.5-0.8-2.9-1.6-4.2-2.3v-4.6c1.8,1.1,3.8,2.2,6.1,3.4c9.7,5.2,16.1,9.1,19.8,12C221.6,165.2,224.3,168.2,226.3,171.7z"/>
		<path class="st1" d="M206.5,179.1c-0.8,0-1.6,0.1-2.3,0.1c-1.4,0-3-0.1-4.7-0.3c-1.6-1-3.9-2.3-7.1-4.2v-4.5
			c6.7,3.8,10.9,6.3,12.6,7.6C205.5,178.3,206,178.7,206.5,179.1z"/>
		<path class="st1" d="M230.4,188.5c-0.4,7.9-3.8,14.9-10.1,20.7c-6.6,6.2-15.2,9.3-25.5,9.3c-3.1,0-6.1-0.2-8.9-0.7
			c-1.1-0.2-3.3-0.7-10.1-2.8c-6.2-2-7.7-2.1-7.9-2.1h-0.1c-0.1,0.3-0.4,1-0.5,2.3l-0.5,3.4h-10.1v-26.2h4v22.3h2.7
			c0.4-2.3,0.9-3.9,1.6-4.6c0.7-0.7,1.7-1.1,2.9-1.1c1.3,0,4.3,0.8,9.1,2.3c4.8,1.6,8,2.4,9.5,2.7c2.6,0.4,5.3,0.7,8.2,0.7
			c9.3,0,16.9-2.8,22.8-8.3c5.1-4.7,8-10.3,8.7-16.6C227.7,189.4,229.1,189,230.4,188.5z"/>
		<path d="M168.5,184.8c-1.1,0.4-2.4,0.7-3.9,0.8c-0.3,0-0.7,0-1.1,0h-3.8v2.7h9.7C169.1,187.3,168.8,186.1,168.5,184.8z
			 M226.5,185.6c-0.1-2.7-0.7-5.4-1.7-8c-0.3-0.8-0.7-1.6-1.1-2.4c-0.2-0.4-0.4-0.8-0.6-1.1c-1.8-3.2-4.2-6-7.3-8.4
			c-3.4-2.7-9.8-6.6-19.2-11.6c-1.5-0.8-2.9-1.6-4.2-2.3c-1.4-0.8-2.7-1.6-4-2.3c-6.9-4.1-11.4-7.5-13.7-10.2
			c-0.2-0.2-0.4-0.4-0.5-0.7c-1.8-2.4-2.7-4.9-2.7-7.7c0-2.9,0.9-5.6,2.7-8c0.7-0.9,1.5-1.8,2.4-2.7c3.2-2.9,7.1-4.5,11.8-4.7
			c0.3,0,0.6,0,0.9,0c1,0,2.1,0.1,3.1,0.2c3.4,0.4,6.8,1.5,10.1,3.3c4.2,2.3,7.5,5.5,9.8,9.4c2.3,3.9,3.9,9.2,4.8,15.9h2.7v-34.7
			h-2.7c-0.5,2.3-1.1,3.8-2,4.6c-0.8,0.8-1.9,1.2-3.1,1.2c-1.1,0-3.1-0.6-5.9-1.9c-4.8-2.1-9.4-3.3-13.8-3.8
			c-1.1-0.1-2.2-0.2-3.2-0.2c-0.2,0-0.5,0-0.8,0c-5.3,0.1-10.1,1.2-14.2,3.4c-1.4,0.7-2.7,1.6-4,2.5c-0.8,0.6-1.5,1.2-2.2,1.9
			c-5.5,5.2-8.3,11.4-8.3,18.6c0,4.1,0.9,7.9,2.8,11.4c1.8,3.3,4.3,6.3,7.7,9c0.2,0.2,0.4,0.3,0.6,0.5c0.9,0.8,2.1,1.6,3.4,2.4
			c3.5,2.4,8.2,5.3,14.2,8.6c0.2,0.1,0.5,0.3,0.8,0.4c1.1,0.6,2.2,1.2,3.2,1.8c6.7,3.8,10.9,6.3,12.6,7.6c0.6,0.4,1.1,0.9,1.6,1.3
			c1.3,1.2,2.5,2.4,3.4,3.7c0.5,0.7,0.9,1.4,1.3,2.1c0.6,1.1,1,2.1,1.4,3.2c0.4,1.3,0.6,2.6,0.7,3.9c0,0.1,0,0.3,0,0.4
			c0,4.4-1.8,8.3-5.4,11.6c-3.6,3.3-8.5,4.9-14.6,4.9c-5.3,0-10.2-1.2-14.7-3.6c-4.5-2.4-7.8-5.4-10-8.9c-0.7-1.1-1.3-2.5-1.9-4h-6
			v22.3h2.7c0.4-2.3,0.9-3.8,1.6-4.6c0.7-0.7,1.7-1.1,2.9-1.1c1.3,0,4.3,0.8,9.1,2.3c4.8,1.6,8,2.4,9.5,2.7c2.6,0.4,5.3,0.7,8.2,0.7
			c9.3,0,16.9-2.7,22.8-8.2c5.1-4.8,8-10.3,8.7-16.6c0.1-1,0.2-2,0.2-3.1C226.5,186.3,226.5,186,226.5,185.6z"/>
		<path class="st1" d="M167.6,180.9c-0.9,0.4-2.1,0.8-3.9,0.8c-0.1-0.5-0.2-1-0.3-1.5h-2.7v1.5h-4v-5.5h10l0.6,3.3
			C167.5,179.9,167.6,180.4,167.6,180.9z"/>
		<path class="st1" d="M164.6,185.6c-0.3,0-0.7,0-1.1,0h-2.8v2.7h4.6C165.1,187.5,164.8,186.6,164.6,185.6z M226.5,185.6
			c-0.1-2.7-0.7-5.4-1.7-8c-0.3-0.8-0.7-1.6-1.1-2.4c-0.2-0.4-0.4-0.8-0.6-1.1c-1.8-3.2-4.2-6-7.3-8.4c-3.4-2.7-9.8-6.6-19.2-11.6
			c-1.5-0.8-2.9-1.6-4.2-2.3c-1.4-0.8-2.7-1.6-4-2.3c-6.9-4.1-11.4-7.5-13.7-10.2c-0.2-0.2-0.4-0.4-0.5-0.7
			c-1.8-2.4-2.7-4.9-2.7-7.7c0-2.9,0.9-5.6,2.7-8c0.7-0.9,1.5-1.8,2.4-2.7c3.2-2.9,7.1-4.5,11.8-4.7c0.3,0,0.6,0,0.9,0
			c1,0,2.1,0.1,3.1,0.2c3.4,0.4,6.8,1.5,10.1,3.3c4.2,2.3,7.5,5.5,9.8,9.4c2.3,3.9,3.9,9.2,4.8,15.9h2.7v-34.7h-2.7
			c-0.5,2.3-1.1,3.8-2,4.6c-0.8,0.8-1.9,1.2-3.1,1.2c-1.1,0-3.1-0.6-5.9-1.9c-4.8-2.1-9.4-3.3-13.8-3.8c-1.1-0.1-2.2-0.2-3.2-0.2
			c-0.2,0-0.5,0-0.8,0c-5.3,0.1-10.1,1.2-14.2,3.4c-1.4,0.7-2.7,1.6-4,2.5c-0.8,0.6-1.5,1.2-2.2,1.9c-5.5,5.2-8.3,11.4-8.3,18.6
			c0,4.1,0.9,7.9,2.8,11.4c1.8,3.3,4.3,6.3,7.7,9c0.2,0.2,0.4,0.3,0.6,0.5c0.9,0.8,2.1,1.6,3.4,2.4c3.5,2.4,8.2,5.3,14.2,8.6
			c0.2,0.1,0.5,0.3,0.8,0.4c1.1,0.6,2.2,1.2,3.2,1.8c6.7,3.8,10.9,6.3,12.6,7.6c0.6,0.4,1.1,0.9,1.6,1.3c1.3,1.2,2.5,2.4,3.4,3.7
			c0.5,0.7,0.9,1.4,1.3,2.1c0.6,1.1,1,2.1,1.4,3.2c0.4,1.3,0.6,2.6,0.7,3.9c0,0.1,0,0.3,0,0.4c0,4.4-1.8,8.3-5.4,11.6
			c-3.6,3.3-8.5,4.9-14.6,4.9c-5.3,0-10.2-1.2-14.7-3.6c-4.5-2.4-7.8-5.4-10-8.9c-0.7-1.1-1.3-2.5-1.9-4h-6v22.3h2.7
			c0.4-2.3,0.9-3.8,1.6-4.6c0.7-0.7,1.7-1.1,2.9-1.1c1.3,0,4.3,0.8,9.1,2.3c4.8,1.6,8,2.4,9.5,2.7c2.6,0.4,5.3,0.7,8.2,0.7
			c9.3,0,16.9-2.7,22.8-8.2c5.1-4.8,8-10.3,8.7-16.6c0.1-1,0.2-2,0.2-3.1C226.5,186.3,226.5,186,226.5,185.6z"/>
		<path class="st1" d="M163.8,181.6c-0.1,0-0.1,0-0.2,0h-2.8v-1.5h2.7C163.6,180.7,163.6,181.2,163.8,181.6z"/>
		<path d="M188.4,149.5V168c0.2,0.1,0.5,0.3,0.8,0.4c1.1,0.6,2.2,1.2,3.2,1.8v-18.4C191,151,189.7,150.2,188.4,149.5z M188.4,149.5
			V168c0.2,0.1,0.5,0.3,0.8,0.4c1.1,0.6,2.2,1.2,3.2,1.8v-18.4C191,151,189.7,150.2,188.4,149.5z M188.4,149.5V168
			c0.2,0.1,0.5,0.3,0.8,0.4c1.1,0.6,2.2,1.2,3.2,1.8v-18.4C191,151,189.7,150.2,188.4,149.5z M188.4,149.5V168
			c0.2,0.1,0.5,0.3,0.8,0.4c1.1,0.6,2.2,1.2,3.2,1.8v-18.4C191,151,189.7,150.2,188.4,149.5z M188.4,149.5V168
			c0.2,0.1,0.5,0.3,0.8,0.4c1.1,0.6,2.2,1.2,3.2,1.8v-18.4C191,151,189.7,150.2,188.4,149.5z M188.4,149.5V168
			c0.2,0.1,0.5,0.3,0.8,0.4c1.1,0.6,2.2,1.2,3.2,1.8v-18.4C191,151,189.7,150.2,188.4,149.5z M188.4,149.5V168
			c0.2,0.1,0.5,0.3,0.8,0.4c1.1,0.6,2.2,1.2,3.2,1.8v-18.4C191,151,189.7,150.2,188.4,149.5z M188.4,149.5V168
			c0.2,0.1,0.5,0.3,0.8,0.4c1.1,0.6,2.2,1.2,3.2,1.8v-18.4C191,151,189.7,150.2,188.4,149.5z M188.4,149.5V168
			c0.2,0.1,0.5,0.3,0.8,0.4c1.1,0.6,2.2,1.2,3.2,1.8v-18.4C191,151,189.7,150.2,188.4,149.5z M253.8,110.1
			c-4.8-7.9-11.1-13.6-18.9-17c-7.8-3.4-19.2-5.1-34.2-5.1h-40.9v2.7h3.8c3.8,0,6.7,1.1,8.6,3.3c1.4,1.6,2.1,5.5,2.1,11.8v2.9
			c4.2-1.9,9-2.9,14.2-3v-9.9c5.7-1.4,10.7-2.1,15.2-2.1c11.8,0,21.5,4,29.1,12c7.6,8,11.3,18.9,11.3,32.8
			c0,13.8-3.8,24.7-11.3,32.7c-1.4,1.6-3,2.9-4.6,4.2c1.2,2.9,2,5.9,2.2,9.1c7.2-2.6,13.1-6.5,17.8-11.7c8.5-9.4,12.7-21.1,12.7-35
			C260.9,127.2,258.5,118,253.8,110.1z M224.8,177.6c-0.3-0.8-0.7-1.6-1.1-2.4c-0.2-0.4-0.4-0.8-0.6-1.1c-4.8,3.1-10.3,4.8-16.6,5.1
			c1.3,1.2,2.5,2.4,3.4,3.7c0.5,0.7,0.9,1.4,1.3,2.1c0.6,1.1,1,2.1,1.4,3.2c0.4,1.3,0.6,2.6,0.7,3.9c4.6-0.4,9-1.1,13-2.2
			c0.1-1,0.2-2,0.2-3.1c0-0.4,0-0.7,0-1.1C226.4,182.9,225.8,180.2,224.8,177.6z M188.4,149.5V168c0.2,0.1,0.5,0.3,0.8,0.4
			c1.1,0.6,2.2,1.2,3.2,1.8v-18.4C191,151,189.7,150.2,188.4,149.5z M188.4,149.5V168c0.2,0.1,0.5,0.3,0.8,0.4
			c1.1,0.6,2.2,1.2,3.2,1.8v-18.4C191,151,189.7,150.2,188.4,149.5z M188.4,149.5V168c0.2,0.1,0.5,0.3,0.8,0.4
			c1.1,0.6,2.2,1.2,3.2,1.8v-18.4C191,151,189.7,150.2,188.4,149.5z M188.4,149.5V168c0.2,0.1,0.5,0.3,0.8,0.4
			c1.1,0.6,2.2,1.2,3.2,1.8v-18.4C191,151,189.7,150.2,188.4,149.5z M188.4,149.5V168c0.2,0.1,0.5,0.3,0.8,0.4
			c1.1,0.6,2.2,1.2,3.2,1.8v-18.4C191,151,189.7,150.2,188.4,149.5z M188.4,149.5V168c0.2,0.1,0.5,0.3,0.8,0.4
			c1.1,0.6,2.2,1.2,3.2,1.8v-18.4C191,151,189.7,150.2,188.4,149.5z M207.8,186.8c-0.7-1.2-1.6-2.4-2.8-3.6c-0.3,0-0.6,0-0.8,0
			c-4.2,0-9.5-0.7-15.8-2.1v-8.6c-0.4-0.2-0.8-0.4-1.2-0.7c-5.3-3-9.6-5.5-13-7.8v6.5c0,5.7-0.5,9.3-1.6,11c-1,1.5-2.4,2.6-4.1,3.3
			c-1.1,0.4-2.4,0.7-3.9,0.8c-0.3,0-0.7,0-1.1,0h-3.8v2.7h44.9c1.3,0,2.6,0,3.9-0.1C208.3,187.8,208.1,187.3,207.8,186.8z
			 M188.4,149.5V168c0.2,0.1,0.5,0.3,0.8,0.4c1.1,0.6,2.2,1.2,3.2,1.8v-18.4C191,151,189.7,150.2,188.4,149.5z M188.4,149.5V168
			c0.2,0.1,0.5,0.3,0.8,0.4c1.1,0.6,2.2,1.2,3.2,1.8v-18.4C191,151,189.7,150.2,188.4,149.5z M188.4,149.5V168
			c0.2,0.1,0.5,0.3,0.8,0.4c1.1,0.6,2.2,1.2,3.2,1.8v-18.4C191,151,189.7,150.2,188.4,149.5z M176.6,120.2c3.2-2.9,7.1-4.5,11.8-4.7
			c0.3,0,0.6,0,0.9,0c1,0,2.1,0.1,3.1,0.2v-5.9c-1.1-0.1-2.2-0.2-3.2-0.2c-0.2,0-0.5,0-0.8,0c-5.3,0.1-10.1,1.2-14.2,3.4
			c-1.4,0.7-2.7,1.6-4,2.5v40.9c0.2,0.2,0.4,0.3,0.6,0.5c0.9,0.8,2.1,1.6,3.4,2.4c3.5,2.4,8.2,5.3,14.2,8.6c0.2,0.1,0.5,0.3,0.8,0.4
			c1.1,0.6,2.2,1.2,3.2,1.8v-18.4c-1.4-0.8-2.7-1.6-4-2.3c-6.9-4.1-11.4-7.5-13.7-10.2c-0.2-0.2-0.4-0.4-0.5-0.7
			c-1.8-2.4-2.7-4.9-2.7-7.7c0-2.9,0.9-5.6,2.7-8C174.9,121.9,175.7,121.1,176.6,120.2z"/>
		<path class="st1" d="M228.1,175.3c-1.1,0.8-2.2,1.6-3.3,2.3c-0.3-0.8-0.7-1.6-1.1-2.4c-0.2-0.4-0.4-0.8-0.6-1.1
			c1.1-0.7,2.2-1.5,3.2-2.3c0.3,0.6,0.6,1.1,0.9,1.7C227.6,174,227.9,174.7,228.1,175.3z"/>
		<path class="st1" d="M244,138.4c0,13.8-3.8,24.7-11.3,32.7c-1.5,1.6-3,2.9-4.6,4.2c-0.3-0.6-0.6-1.3-0.9-1.9
			c-0.3-0.6-0.6-1.1-0.9-1.7c1.2-1,2.4-2.1,3.5-3.3c6.8-7.2,10.2-17.4,10.2-30c0-12.8-3.4-22.9-10.2-30.1
			c-6.8-7.2-15.4-10.8-26.2-10.8c-3.3,0-7.1,0.4-11.2,1.3v6.9c-1.1-0.1-2.1-0.1-3.2-0.1c-0.2,0-0.5,0-0.7,0v-9.9
			c5.7-1.4,10.7-2.2,15.2-2.2c11.8,0,21.5,4,29.1,12C240.3,113.6,244,124.5,244,138.4z"/>
		<path class="st1" d="M230.4,186.7c0,0.6,0,1.2-0.1,1.9c-1.3,0.4-2.7,0.9-4.1,1.2c0.1-1,0.2-2,0.2-3.1c0-0.4,0-0.7,0-1.1
			c1.3-0.4,2.6-0.8,3.9-1.3C230.4,185.1,230.4,185.9,230.4,186.7z"/>
		<path class="st1" d="M264.9,137.6c0,14.9-4.6,27.6-13.8,37.7c-5.4,6-12.4,10.4-20.7,13.2c0-0.6,0.1-1.2,0.1-1.9
			c0-0.8,0-1.5-0.1-2.3c7.2-2.6,13.1-6.5,17.8-11.7c8.5-9.4,12.7-21.1,12.7-35c0-10.4-2.4-19.6-7.1-27.5c-4.8-7.9-11.1-13.6-18.9-17
			c-7.8-3.4-19.2-5.1-34.2-5.1h-40.9v2.7h3.8c3.8,0,6.7,1.1,8.6,3.3c1.4,1.6,2.1,5.5,2.1,11.8v2.9c-1.4,0.6-2.7,1.3-4,2.1v-5
			c0-7.5-1.1-9.1-1.1-9.2c-1.1-1.2-2.9-1.9-5.6-1.9h-7.7V84h44.8c15.7,0,27.4,1.8,35.8,5.4c8.6,3.7,15.5,10,20.7,18.6
			C262.3,116.6,264.9,126.5,264.9,137.6z"/>
		<polygon class="st1" points="159.8,185.6 159.8,188.4 160.7,188.4 160.7,192.3 155.8,192.3 155.8,181.7 160.7,181.7 160.7,185.6 
					"/>
		<path class="st1" d="M174.2,164.1v6.5c0,5.7-0.5,9.3-1.6,11c-1,1.5-2.4,2.6-4.1,3.3c-0.3-1.2-0.6-2.6-0.9-3.9
			c0.8-0.4,1.3-1,1.6-1.5c0.1-0.1,1-1.6,1-8.8v-9.2C171.4,162.2,172.7,163.1,174.2,164.1z"/>
		<path class="st1" d="M168.5,184.8c-1.1,0.4-2.4,0.7-3.9,0.8c-0.3-1.2-0.6-2.6-0.9-3.9c1.8,0,3-0.4,3.9-0.8
			C167.9,182.3,168.2,183.6,168.5,184.8z"/>
		<path class="st1" d="M171,192.3h-4.3c-0.5-1.2-0.9-2.5-1.4-4h4.1C170,189.8,170.5,191.2,171,192.3z"/>
		<path class="st1" d="M166.7,192.3h-6v-4h4.6C165.8,189.8,166.2,191.1,166.7,192.3z"/>
		<path class="st1" d="M164.6,185.6c-0.3,0-0.7,0-1.1,0h-2.8v-4h2.8c0.1,0,0.1,0,0.2,0C164,183,164.3,184.3,164.6,185.6z"/>
		<path class="st1" d="M213.3,191.9c-1.3,0.1-2.6,0.2-4,0.3c0-1.3-0.3-2.6-0.8-3.9c1.4-0.1,2.8-0.1,4.1-0.2
			C213,189.4,213.3,190.7,213.3,191.9z"/>
		<path class="st1" d="M205,183.2c-0.3,0-0.6,0-0.8,0c-4.2,0-9.5-0.7-15.8-2.1v-8.6c1.5,0.8,2.8,1.6,4,2.2v3.1
			c2.6,0.5,4.9,0.9,7.1,1.1c1.6,1,2.6,1.6,3.1,2.1C203.5,181.7,204.3,182.4,205,183.2z"/>
		<path class="st1" d="M209.9,182.8c-1.6,0.2-3.2,0.3-4.9,0.4c-0.7-0.7-1.6-1.5-2.5-2.2c-0.5-0.4-1.4-1-3.1-2.1
			c1.7,0.2,3.3,0.3,4.7,0.3c0.8,0,1.6,0,2.3-0.1C207.9,180.3,209,181.5,209.9,182.8z"/>
		<path class="st1" d="M174.2,159.4v4.8c-1.5-1-2.8-1.9-4-2.7v-5c0.2,0.2,0.4,0.3,0.6,0.5C171.8,157.6,172.9,158.5,174.2,159.4z"/>
		<path class="st1" d="M192.4,147.2v4.6c-1.4-0.8-2.7-1.6-4-2.3v-4.6C189.6,145.6,190.9,146.4,192.4,147.2z"/>
		<path class="st1" d="M174.2,122.9v15.7c-1.8-2.3-2.7-4.9-2.7-7.7C171.6,128,172.4,125.3,174.2,122.9z"/>
		<path class="st1" d="M192.4,115.7v4c-1-0.1-2-0.2-3.1-0.2c-0.3,0-0.6,0-0.9,0v-4c0.3,0,0.6,0,0.9,0
			C190.4,115.5,191.4,115.6,192.4,115.7z"/>
		<path class="st1" d="M192.4,105.8v4c-1.1-0.1-2.2-0.2-3.2-0.2c-0.2,0-0.5,0-0.7,0v-4c0.2,0,0.5,0,0.7,0
			C190.2,105.6,191.3,105.7,192.4,105.8z"/>
		<path class="st1" d="M174.2,108.6v4.4c-1.4,0.7-2.7,1.6-4,2.5v-4.8C171.5,109.9,172.8,109.2,174.2,108.6z"/>
		<path class="st1" d="M192.4,119.7v27.6c-1.4-0.8-2.8-1.6-4-2.4v-25.4c0.3,0,0.6,0,0.9,0C190.4,119.5,191.4,119.5,192.4,119.7z"/>
		<path class="st1" d="M209.3,192.2c-1.5,0.1-3.1,0.1-4.7,0.1H171c-0.5-1.2-1-2.5-1.5-4h35.2c1.3,0,2.6,0,3.9-0.1
			C209.1,189.6,209.3,190.9,209.3,192.2z"/>
		<path class="st1" d="M192.4,170.2v4.5c-1.2-0.7-2.5-1.4-4-2.2V168c0.2,0.1,0.5,0.3,0.7,0.4C190.3,169.1,191.4,169.6,192.4,170.2z"
			/>
		<path class="st1" d="M253.8,110.1c-4.8-7.9-11.1-13.6-18.9-17c-7.8-3.4-19.2-5.1-34.2-5.1h-40.9v2.7h3.8c3.8,0,6.7,1.1,8.6,3.3
			c1.4,1.6,2.1,5.5,2.1,11.8v2.9c4.2-1.9,9-2.9,14.2-3v-9.9c5.7-1.4,10.7-2.1,15.2-2.1c11.8,0,21.5,4,29.1,12
			c7.6,8,11.3,18.9,11.3,32.8c0,13.8-3.8,24.7-11.3,32.7c-1.4,1.6-3,2.9-4.6,4.2c1.2,2.9,2,5.9,2.2,9.1c7.2-2.6,13.1-6.5,17.8-11.7
			c8.5-9.4,12.7-21.1,12.7-35C260.9,127.2,258.5,118,253.8,110.1z M209.9,182.8c0.5,0.7,0.9,1.4,1.3,2.1c0.6,1.1,1,2.1,1.4,3.2
			c5-0.4,9.6-1.2,13.9-2.4c-0.1-2.7-0.7-5.4-1.7-8C220.4,180.4,215.4,182.1,209.9,182.8z M207.8,186.8c-0.7-1.2-1.6-2.4-2.8-3.6
			c-0.3,0-0.6,0-0.8,0c-4.2,0-9.5-0.7-15.8-2.1v-8.6c-0.4-0.2-0.8-0.4-1.2-0.7c-5.3-3-9.6-5.5-13-7.8v6.5c0,5.7-0.5,9.3-1.6,11
			c-1,1.5-2.4,2.6-4.1,3.3c-1.1,0.4-2.4,0.7-3.9,0.8c-0.3,0-0.7,0-1.1,0h-3.8v2.7h44.9c1.3,0,2.6,0,3.9-0.1
			C208.3,187.8,208.1,187.3,207.8,186.8z M174.7,139.3c-0.2-0.2-0.4-0.4-0.5-0.7v20.7c3.5,2.4,8.2,5.3,14.2,8.6v-18.5
			C181.6,145.4,177,142,174.7,139.3z M174.2,113v9.9c0.7-0.9,1.5-1.8,2.4-2.7c3.2-2.9,7.1-4.5,11.8-4.7v-5.9
			C183.1,109.7,178.3,110.8,174.2,113z"/>
		<path class="st1" d="M212.6,188c-1.4,0.1-2.7,0.2-4.1,0.2c-0.2-0.5-0.4-1-0.7-1.5c-0.7-1.2-1.6-2.4-2.8-3.6c1.7,0,3.3-0.1,4.9-0.4
			c0.5,0.7,0.9,1.4,1.3,2.1C211.8,185.9,212.3,187,212.6,188z"/>
		<path class="st1" d="M179.3,123.1c-2.5,2.4-3.8,4.9-3.8,7.8c0,2.1,0.7,4,2.2,5.8c1.3,1.6,4.3,4.2,10.7,8.1v4.6
			c-6.9-4.1-11.4-7.5-13.7-10.2c-0.2-0.2-0.4-0.4-0.5-0.7v-15.7c0.7-0.9,1.5-1.8,2.4-2.7c3.2-2.9,7.1-4.5,11.8-4.7v4
			C184.7,119.6,181.7,120.8,179.3,123.1z"/>
		<path class="st1" d="M188.4,105.6v4c-5.3,0.1-10.1,1.2-14.2,3.4v-4.4C178.4,106.7,183.2,105.7,188.4,105.6z"/>
		<path class="st1" d="M188.4,119.5v25.4c-6.4-3.9-9.3-6.5-10.7-8.1c-1.5-1.8-2.2-3.7-2.2-5.8c0-2.9,1.2-5.4,3.8-7.8
			C181.7,120.8,184.7,119.6,188.4,119.5z"/>
		<path class="st1" d="M188.4,168v4.5c-0.4-0.2-0.8-0.4-1.2-0.7c-5.3-3-9.6-5.5-13-7.8v-4.8C177.7,161.7,182.4,164.6,188.4,168z"/>
		<path class="st1" d="M223.8,105.6v42.6h-10.2l-0.5-3.4c-0.8-6.1-2.2-11-4.3-14.5c-1.9-3.3-4.7-5.9-8.3-7.9
			c-2.7-1.5-5.4-2.4-8.2-2.8v-4c3.4,0.4,6.8,1.5,10.1,3.3c4.2,2.3,7.5,5.4,9.8,9.4c2.3,3.9,3.9,9.3,4.8,15.9h2.7v-34.7h-2.7
			c-0.5,2.3-1.1,3.9-2,4.6c-0.8,0.8-1.9,1.2-3.1,1.2c-1.1,0-3.1-0.6-5.9-1.8c-4.8-2.1-9.4-3.3-13.7-3.8v-4c4.9,0.4,10,1.8,15.3,4.1
			c3.2,1.4,4.2,1.5,4.3,1.5c0.1,0,0.3,0,0.4-0.1c0.1-0.2,0.5-0.9,0.8-2.6l0.7-3.1L223.8,105.6L223.8,105.6z"/>
	</g>
</g>
</svg>
