<?xml version="1.0" encoding="utf-8"?>
<!-- Generator: Adobe Illustrator 27.1.1, SVG Export Plug-In . SVG Version: 6.00 Build 0)  -->
<svg version="1.1" id="Layer_1" xmlns="http://www.w3.org/2000/svg" xmlns:xlink="http://www.w3.org/1999/xlink" x="0px" y="0px"
	 viewBox="0 0 400 300" style="enable-background:new 0 0 400 300;" xml:space="preserve">
<style type="text/css">
	.st0{fill:none;stroke:#000000;stroke-width:4;stroke-miterlimit:10;}
	.st1{fill:none;}
</style>
<path class="st0" d="M207.32,242.08h-6.06c-41.23,0-74.65-33.42-74.65-74.65v-44.72c0-41.23,33.42-74.65,74.65-74.65h6.06
	c41.23,0,74.65,33.42,74.65,74.65v44.72C281.98,208.66,248.55,242.08,207.32,242.08z"/>
<g>
	<path class="st1" d="M213.31,192.36c0,4.44-1.79,8.3-5.37,11.55c-3.58,3.26-8.46,4.89-14.62,4.89c-5.34,0-10.24-1.19-14.7-3.55
		c-4.47-2.38-7.79-5.34-9.96-8.92c-0.7-1.15-1.35-2.49-1.95-4.01H171c0.34,0.71,0.68,1.37,1.04,1.96c1.79,2.95,4.62,5.46,8.43,7.48
		c3.87,2.05,8.19,3.1,12.85,3.1c5.19,0,9.1-1.27,11.96-3.86c2.75-2.5,4.08-5.32,4.08-8.63c0-0.05,0-0.1-0.01-0.15
		c1.35-0.06,2.67-0.14,3.96-0.26C213.31,192.09,213.31,192.23,213.31,192.36z"/>
	<path class="st1" d="M159.77,136.02c0,4.14,0.93,7.95,2.81,11.4c1.77,3.26,4.33,6.27,7.66,9v4.99c-0.67-0.49-1.29-0.95-1.86-1.4
		c-4.03-3.18-7.16-6.79-9.28-10.7c-2.19-4.02-3.29-8.49-3.29-13.29c0-8.31,3.21-15.55,9.53-21.51c1.53-1.44,3.17-2.71,4.9-3.8v4.82
		c-0.75,0.58-1.48,1.2-2.19,1.86C162.54,122.6,159.77,128.8,159.77,136.02z"/>
	<path class="st1" d="M226.31,171.69c-1.04,0.86-2.11,1.63-3.21,2.34c-1.81-3.17-4.24-5.96-7.31-8.37
		c-3.43-2.68-9.83-6.55-19.22-11.58c-1.46-0.78-2.87-1.55-4.19-2.3v-4.56c1.81,1.05,3.82,2.16,6.06,3.36
		c9.67,5.19,16.14,9.1,19.79,11.96C221.57,165.17,224.28,168.24,226.31,171.69z"/>
	<path class="st1" d="M206.54,179.15c-0.77,0.04-1.55,0.06-2.34,0.06c-1.44,0-3.02-0.09-4.74-0.26c-1.59-0.99-3.86-2.34-7.07-4.18
		v-4.54c6.7,3.79,10.89,6.34,12.56,7.62C205.5,178.28,206.03,178.71,206.54,179.15z"/>
	<path class="st1" d="M230.4,188.51c-0.45,7.93-3.83,14.89-10.05,20.7c-6.63,6.18-15.19,9.32-25.47,9.32c-3.13,0-6.12-0.25-8.9-0.72
		c-1.06-0.17-3.33-0.67-10.05-2.84c-6.18-2-7.7-2.13-7.94-2.14h-0.05c-0.13,0.33-0.35,1.02-0.54,2.33l-0.51,3.37h-10.11v-26.22h3.96
		v22.26h2.74c0.35-2.32,0.88-3.85,1.59-4.59c0.72-0.74,1.69-1.11,2.93-1.11c1.28,0,4.33,0.78,9.14,2.34
		c4.81,1.55,7.98,2.45,9.52,2.7c2.57,0.44,5.3,0.67,8.22,0.67c9.28,0,16.87-2.75,22.77-8.26c5.08-4.74,7.98-10.27,8.69-16.58
		C227.72,189.38,229.08,188.97,230.4,188.51z"/>
	<path d="M168.49,184.81c-1.14,0.43-2.43,0.69-3.88,0.77c-0.34,0.02-0.7,0.03-1.06,0.03h-3.78v2.74h9.71
		C169.14,187.26,168.8,186.08,168.49,184.81z M226.47,185.61c-0.12-2.74-0.67-5.4-1.67-7.99c-0.31-0.82-0.68-1.63-1.09-2.44
		c-0.2-0.39-0.4-0.77-0.62-1.15c-1.8-3.18-4.23-5.96-7.31-8.37c-3.42-2.68-9.83-6.55-19.21-11.58c-1.47-0.79-2.87-1.55-4.19-2.3
		c-1.4-0.78-2.71-1.55-3.96-2.29c-6.87-4.08-11.44-7.49-13.69-10.22c-0.19-0.22-0.36-0.44-0.53-0.66c-1.77-2.35-2.66-4.91-2.66-7.71
		c0-2.91,0.89-5.58,2.66-8.02c0.66-0.93,1.46-1.82,2.38-2.68c3.16-2.95,7.11-4.51,11.84-4.69c0.3,0,0.6-0.01,0.9-0.01
		c1.03,0,2.05,0.05,3.06,0.17c3.45,0.41,6.83,1.51,10.11,3.3c4.25,2.33,7.52,5.46,9.82,9.41c2.3,3.95,3.89,9.25,4.77,15.92h2.74
		v-34.72h-2.74c-0.5,2.32-1.14,3.85-1.96,4.62c-0.82,0.77-1.86,1.15-3.14,1.15c-1.14,0-3.09-0.62-5.85-1.86
		c-4.79-2.09-9.38-3.34-13.75-3.76c-1.08-0.11-2.16-0.15-3.21-0.15c-0.25,0-0.5,0-0.75,0.01c-5.34,0.09-10.08,1.22-14.22,3.4
		c-1.39,0.72-2.7,1.57-3.96,2.53c-0.75,0.58-1.48,1.2-2.18,1.86c-5.53,5.21-8.29,11.42-8.29,18.63c0,4.14,0.93,7.95,2.81,11.4
		c1.77,3.26,4.33,6.27,7.66,9c0.2,0.16,0.4,0.32,0.6,0.48c0.95,0.75,2.07,1.57,3.36,2.45c3.49,2.39,8.24,5.28,14.22,8.65
		c0.25,0.14,0.49,0.28,0.75,0.42c1.13,0.63,2.2,1.23,3.21,1.81c6.7,3.79,10.89,6.34,12.56,7.63c0.56,0.42,1.09,0.85,1.6,1.29
		c1.34,1.18,2.48,2.4,3.4,3.66c0.51,0.68,0.95,1.38,1.33,2.08c0.57,1.06,1.02,2.11,1.35,3.16c0.41,1.31,0.64,2.62,0.68,3.91
		c0.01,0.14,0.01,0.27,0.01,0.41c0,4.44-1.79,8.3-5.37,11.55c-3.58,3.26-8.46,4.89-14.62,4.89c-5.34,0-10.24-1.19-14.71-3.55
		c-4.46-2.38-7.79-5.35-9.96-8.93c-0.69-1.14-1.34-2.48-1.94-4.01h-5.98v22.26h2.74c0.35-2.32,0.88-3.84,1.59-4.59
		c0.72-0.73,1.69-1.11,2.93-1.11c1.28,0,4.33,0.78,9.14,2.34c4.82,1.55,7.98,2.45,9.52,2.7c2.56,0.44,5.3,0.66,8.22,0.66
		c9.28,0,16.87-2.74,22.77-8.25c5.08-4.75,7.98-10.27,8.68-16.58c0.11-1.01,0.17-2.04,0.17-3.08
		C226.49,186.31,226.48,185.96,226.47,185.61z"/>
	<path class="st1" d="M167.63,180.86c-0.85,0.44-2.07,0.78-3.89,0.79c-0.1-0.49-0.19-0.99-0.28-1.5h-2.74v1.51h-3.96v-5.47h10.02
		l0.59,3.26C167.46,179.93,167.55,180.4,167.63,180.86z"/>
	<path class="st1" d="M164.61,185.58c-0.34,0.02-0.7,0.03-1.06,0.03h-2.82v2.74h4.61C165.09,187.47,164.84,186.55,164.61,185.58z
		 M226.47,185.61c-0.12-2.74-0.67-5.4-1.67-7.99c-0.31-0.82-0.68-1.63-1.09-2.44c-0.2-0.39-0.4-0.77-0.62-1.15
		c-1.8-3.18-4.23-5.96-7.31-8.37c-3.42-2.68-9.83-6.55-19.21-11.58c-1.47-0.79-2.87-1.55-4.19-2.3c-1.4-0.78-2.71-1.55-3.96-2.29
		c-6.87-4.08-11.44-7.49-13.69-10.22c-0.19-0.22-0.36-0.44-0.53-0.66c-1.77-2.35-2.66-4.91-2.66-7.71c0-2.91,0.89-5.58,2.66-8.02
		c0.66-0.93,1.46-1.82,2.38-2.68c3.16-2.95,7.11-4.51,11.84-4.69c0.3,0,0.6-0.01,0.9-0.01c1.03,0,2.05,0.05,3.06,0.17
		c3.45,0.41,6.83,1.51,10.11,3.3c4.25,2.33,7.52,5.46,9.82,9.41c2.3,3.95,3.89,9.25,4.77,15.92h2.74v-34.72h-2.74
		c-0.5,2.32-1.14,3.85-1.96,4.62c-0.82,0.77-1.86,1.15-3.14,1.15c-1.14,0-3.09-0.62-5.85-1.86c-4.79-2.09-9.38-3.34-13.75-3.76
		c-1.08-0.11-2.16-0.15-3.21-0.15c-0.25,0-0.5,0-0.75,0.01c-5.34,0.09-10.08,1.22-14.22,3.4c-1.39,0.72-2.7,1.57-3.96,2.53
		c-0.75,0.58-1.48,1.2-2.18,1.86c-5.53,5.21-8.29,11.42-8.29,18.63c0,4.14,0.93,7.95,2.81,11.4c1.77,3.26,4.33,6.27,7.66,9
		c0.2,0.16,0.4,0.32,0.6,0.48c0.95,0.75,2.07,1.57,3.36,2.45c3.49,2.39,8.24,5.28,14.22,8.65c0.25,0.14,0.49,0.28,0.75,0.42
		c1.13,0.63,2.2,1.23,3.21,1.81c6.7,3.79,10.89,6.34,12.56,7.63c0.56,0.42,1.09,0.85,1.6,1.29c1.34,1.18,2.48,2.4,3.4,3.66
		c0.51,0.68,0.95,1.38,1.33,2.08c0.57,1.06,1.02,2.11,1.35,3.16c0.41,1.31,0.64,2.62,0.68,3.91c0.01,0.14,0.01,0.27,0.01,0.41
		c0,4.44-1.79,8.3-5.37,11.55c-3.58,3.26-8.46,4.89-14.62,4.89c-5.34,0-10.24-1.19-14.71-3.55c-4.46-2.38-7.79-5.35-9.96-8.93
		c-0.69-1.14-1.34-2.48-1.94-4.01h-5.98v22.26h2.74c0.35-2.32,0.88-3.84,1.59-4.59c0.72-0.73,1.69-1.11,2.93-1.11
		c1.28,0,4.33,0.78,9.14,2.34c4.82,1.55,7.98,2.45,9.52,2.7c2.56,0.44,5.3,0.66,8.22,0.66c9.28,0,16.87-2.74,22.77-8.25
		c5.08-4.75,7.98-10.27,8.68-16.58c0.11-1.01,0.17-2.04,0.17-3.08C226.49,186.31,226.48,185.96,226.47,185.61z"/>
	<path class="st1" d="M163.75,181.65c-0.06,0.01-0.13,0.01-0.2,0.01h-2.82v-1.51h2.74C163.56,180.66,163.65,181.16,163.75,181.65z"
		/>
	<path d="M188.42,149.49v18.5c0.25,0.14,0.49,0.28,0.75,0.42c1.13,0.63,2.2,1.23,3.21,1.81v-18.44
		C190.98,151,189.67,150.23,188.42,149.49z M188.42,149.49v18.5c0.25,0.14,0.49,0.28,0.75,0.42c1.13,0.63,2.2,1.23,3.21,1.81v-18.44
		C190.98,151,189.67,150.23,188.42,149.49z M188.42,149.49v18.5c0.25,0.14,0.49,0.28,0.75,0.42c1.13,0.63,2.2,1.23,3.21,1.81v-18.44
		C190.98,151,189.67,150.23,188.42,149.49z M188.42,149.49v18.5c0.25,0.14,0.49,0.28,0.75,0.42c1.13,0.63,2.2,1.23,3.21,1.81v-18.44
		C190.98,151,189.67,150.23,188.42,149.49z M188.42,149.49v18.5c0.25,0.14,0.49,0.28,0.75,0.42c1.13,0.63,2.2,1.23,3.21,1.81v-18.44
		C190.98,151,189.67,150.23,188.42,149.49z M188.42,149.49v18.5c0.25,0.14,0.49,0.28,0.75,0.42c1.13,0.63,2.2,1.23,3.21,1.81v-18.44
		C190.98,151,189.67,150.23,188.42,149.49z M188.42,149.49v18.5c0.25,0.14,0.49,0.28,0.75,0.42c1.13,0.63,2.2,1.23,3.21,1.81v-18.44
		C190.98,151,189.67,150.23,188.42,149.49z M188.42,149.49v18.5c0.25,0.14,0.49,0.28,0.75,0.42c1.13,0.63,2.2,1.23,3.21,1.81v-18.44
		C190.98,151,189.67,150.23,188.42,149.49z M188.42,149.49v18.5c0.25,0.14,0.49,0.28,0.75,0.42c1.13,0.63,2.2,1.23,3.21,1.81v-18.44
		C190.98,151,189.67,150.23,188.42,149.49z M253.77,110.08c-4.76-7.95-11.06-13.62-18.88-17.03c-7.82-3.41-19.24-5.11-34.24-5.11
		h-40.88v2.74h3.78c3.8,0,6.66,1.09,8.59,3.26c1.37,1.58,2.06,5.5,2.06,11.77v2.88c4.25-1.89,9-2.88,14.22-2.97v-9.91
		c5.68-1.42,10.74-2.14,15.19-2.14c11.84,0,21.54,3.99,29.09,11.99c7.56,8.01,11.33,18.94,11.33,32.81
		c0,13.77-3.77,24.69-11.33,32.73c-1.45,1.55-2.97,2.95-4.57,4.2c1.23,2.91,1.98,5.94,2.23,9.05c7.17-2.61,13.1-6.51,17.82-11.7
		c8.5-9.37,12.74-21.05,12.74-35.02C260.92,127.21,258.54,118.03,253.77,110.08z M224.8,177.62c-0.31-0.82-0.68-1.63-1.09-2.44
		c-0.2-0.39-0.4-0.77-0.62-1.15c-4.83,3.1-10.31,4.78-16.55,5.11c1.34,1.18,2.48,2.4,3.4,3.66c0.51,0.68,0.95,1.38,1.33,2.08
		c0.57,1.06,1.02,2.11,1.35,3.16c0.41,1.31,0.64,2.62,0.68,3.91c4.64-0.4,8.98-1.14,13.02-2.21c0.11-1.01,0.17-2.04,0.17-3.08
		c0-0.35-0.01-0.7-0.02-1.05C226.35,182.87,225.8,180.21,224.8,177.62z M188.42,149.49v18.5c0.25,0.14,0.49,0.28,0.75,0.42
		c1.13,0.63,2.2,1.23,3.21,1.81v-18.44C190.98,151,189.67,150.23,188.42,149.49z M188.42,149.49v18.5c0.25,0.14,0.49,0.28,0.75,0.42
		c1.13,0.63,2.2,1.23,3.21,1.81v-18.44C190.98,151,189.67,150.23,188.42,149.49z M188.42,149.49v18.5c0.25,0.14,0.49,0.28,0.75,0.42
		c1.13,0.63,2.2,1.23,3.21,1.81v-18.44C190.98,151,189.67,150.23,188.42,149.49z M188.42,149.49v18.5c0.25,0.14,0.49,0.28,0.75,0.42
		c1.13,0.63,2.2,1.23,3.21,1.81v-18.44C190.98,151,189.67,150.23,188.42,149.49z M188.42,149.49v18.5c0.25,0.14,0.49,0.28,0.75,0.42
		c1.13,0.63,2.2,1.23,3.21,1.81v-18.44C190.98,151,189.67,150.23,188.42,149.49z M188.42,149.49v18.5c0.25,0.14,0.49,0.28,0.75,0.42
		c1.13,0.63,2.2,1.23,3.21,1.81v-18.44C190.98,151,189.67,150.23,188.42,149.49z M207.79,186.76c-0.67-1.23-1.59-2.44-2.76-3.6
		c-0.27,0.01-0.55,0.01-0.84,0.01c-4.24,0-9.5-0.69-15.77-2.08v-8.56c-0.39-0.22-0.78-0.44-1.18-0.67
		c-5.29-2.96-9.6-5.53-13.04-7.77v6.49c0,5.67-0.53,9.33-1.62,10.96c-0.99,1.51-2.35,2.59-4.09,3.27c-1.14,0.43-2.43,0.69-3.88,0.77
		c-0.34,0.02-0.7,0.03-1.06,0.03h-3.78v2.74h44.87c1.3,0,2.59-0.02,3.86-0.07C208.3,187.78,208.07,187.28,207.79,186.76z
		 M188.42,149.49v18.5c0.25,0.14,0.49,0.28,0.75,0.42c1.13,0.63,2.2,1.23,3.21,1.81v-18.44C190.98,151,189.67,150.23,188.42,149.49z
		 M188.42,149.49v18.5c0.25,0.14,0.49,0.28,0.75,0.42c1.13,0.63,2.2,1.23,3.21,1.81v-18.44C190.98,151,189.67,150.23,188.42,149.49z
		 M188.42,149.49v18.5c0.25,0.14,0.49,0.28,0.75,0.42c1.13,0.63,2.2,1.23,3.21,1.81v-18.44C190.98,151,189.67,150.23,188.42,149.49z
		 M176.58,120.2c3.16-2.95,7.11-4.51,11.84-4.69c0.3,0,0.6-0.01,0.9-0.01c1.03,0,2.05,0.05,3.06,0.17v-5.94
		c-1.08-0.11-2.16-0.15-3.21-0.15c-0.25,0-0.5,0-0.75,0.01c-5.34,0.09-10.08,1.22-14.22,3.4c-1.39,0.72-2.7,1.57-3.96,2.53v40.89
		c0.2,0.16,0.4,0.32,0.6,0.48c0.95,0.75,2.07,1.57,3.36,2.45c3.49,2.39,8.24,5.28,14.22,8.65c0.25,0.14,0.49,0.28,0.75,0.42
		c1.13,0.63,2.2,1.23,3.21,1.81v-18.44c-1.4-0.78-2.71-1.55-3.96-2.29c-6.87-4.08-11.44-7.49-13.69-10.22
		c-0.19-0.22-0.36-0.44-0.53-0.66c-1.77-2.35-2.66-4.91-2.66-7.71c0-2.91,0.89-5.58,2.66-8.02
		C174.86,121.95,175.66,121.06,176.58,120.2z"/>
	<path class="st1" d="M228.13,175.3c-1.08,0.84-2.19,1.61-3.33,2.32c-0.31-0.82-0.68-1.63-1.09-2.44c-0.2-0.39-0.4-0.77-0.62-1.15
		c1.11-0.71,2.18-1.49,3.22-2.34c0.33,0.56,0.64,1.12,0.93,1.7C227.57,174.02,227.86,174.66,228.13,175.3z"/>
	<path class="st1" d="M244.04,138.37c0,13.77-3.78,24.69-11.33,32.73c-1.46,1.55-2.98,2.95-4.58,4.2c-0.27-0.64-0.56-1.27-0.89-1.91
		c-0.29-0.58-0.6-1.14-0.93-1.7c1.22-1,2.39-2.1,3.52-3.29c6.8-7.25,10.25-17.35,10.25-30.02c0-12.76-3.44-22.89-10.24-30.09
		c-6.84-7.24-15.41-10.76-26.22-10.76c-3.32,0-7.08,0.45-11.23,1.33v6.9c-1.08-0.1-2.15-0.14-3.21-0.14c-0.25,0-0.5,0-0.74,0.01
		v-9.91c5.68-1.43,10.74-2.15,15.19-2.15c11.84,0,21.54,4,29.1,11.99C240.26,113.57,244.04,124.5,244.04,138.37z"/>
	<path class="st1" d="M230.45,186.66c0,0.62-0.02,1.24-0.06,1.85c-1.31,0.45-2.67,0.86-4.07,1.23c0.11-1.01,0.17-2.04,0.17-3.08
		c0-0.35-0.01-0.7-0.02-1.05c1.33-0.38,2.63-0.8,3.89-1.26C230.42,185.11,230.45,185.88,230.45,186.66z"/>
	<path class="st1" d="M264.88,137.63c0,14.92-4.63,27.6-13.76,37.69c-5.43,5.96-12.36,10.37-20.73,13.2
		c0.04-0.61,0.06-1.23,0.06-1.85c0-0.78-0.03-1.54-0.09-2.31c7.17-2.6,13.1-6.51,17.82-11.69c8.5-9.37,12.74-21.05,12.74-35.03
		c0-10.41-2.38-19.6-7.15-27.54c-4.77-7.95-11.06-13.63-18.88-17.03c-7.82-3.41-19.24-5.11-34.24-5.11h-40.88v2.74h3.78
		c3.8,0,6.66,1.09,8.59,3.26c1.38,1.58,2.07,5.5,2.07,11.77v2.88c-1.38,0.61-2.69,1.31-3.96,2.11v-4.99c0-7.54-1.07-9.14-1.12-9.2
		c-1.11-1.24-2.95-1.88-5.58-1.88h-7.74V83.98h44.84c15.7,0,27.42,1.78,35.83,5.44c8.56,3.73,15.52,10,20.7,18.63
		C262.29,116.59,264.88,126.54,264.88,137.63z"/>
	<polygon class="st1" points="159.77,185.62 159.77,188.36 160.73,188.36 160.73,192.31 155.81,192.31 155.81,181.66 160.73,181.66 
		160.73,185.62 	"/>
	<path class="st1" d="M174.21,164.1v6.48c0,5.68-0.54,9.33-1.62,10.97c-0.99,1.5-2.35,2.59-4.09,3.26c-0.3-1.24-0.59-2.55-0.86-3.95
		c0.84-0.44,1.32-1,1.63-1.48c0.06-0.09,0.98-1.65,0.98-8.8v-9.18C171.4,162.25,172.73,163.14,174.21,164.1z"/>
	<path class="st1" d="M168.49,184.81c-1.13,0.44-2.42,0.7-3.88,0.78c-0.31-1.24-0.59-2.55-0.86-3.93c1.82-0.02,3.04-0.35,3.89-0.79
		C167.9,182.26,168.19,183.57,168.49,184.81z"/>
	<path class="st1" d="M171,192.31h-4.29c-0.48-1.2-0.93-2.53-1.36-3.96h4.14C169.96,189.84,170.47,191.16,171,192.31z"/>
	<path class="st1" d="M166.71,192.31h-5.98v-3.96h4.62C165.77,189.79,166.23,191.11,166.71,192.31z"/>
	<path class="st1" d="M164.61,185.59c-0.34,0.02-0.7,0.03-1.06,0.03h-2.82v-3.96h2.82c0.06,0,0.13,0,0.2-0.01
		C164.02,183.04,164.3,184.34,164.61,185.59z"/>
	<path class="st1" d="M213.3,191.95c-1.29,0.12-2.61,0.2-3.96,0.26c-0.02-1.28-0.29-2.58-0.84-3.93c1.4-0.06,2.77-0.13,4.12-0.25
		C213.03,189.35,213.26,190.66,213.3,191.95z"/>
	<path class="st1" d="M205.04,183.16c-0.28,0.01-0.55,0.01-0.84,0.01c-4.24,0-9.5-0.69-15.77-2.07v-8.57
		c1.46,0.82,2.77,1.57,3.96,2.24v3.1c2.57,0.5,4.92,0.86,7.07,1.08c1.65,1.02,2.58,1.65,3.1,2.05
		C203.48,181.71,204.3,182.43,205.04,183.16z"/>
	<path class="st1" d="M209.94,182.81c-1.59,0.21-3.23,0.32-4.91,0.36c-0.74-0.74-1.56-1.46-2.49-2.16c-0.51-0.4-1.44-1.03-3.1-2.05
		c1.73,0.17,3.3,0.26,4.74,0.26c0.79,0,1.58-0.02,2.34-0.06C207.88,180.32,209.02,181.54,209.94,182.81z"/>
	<path class="st1" d="M174.21,159.35v4.75c-1.48-0.96-2.8-1.85-3.96-2.69v-4.99c0.2,0.16,0.4,0.32,0.59,0.48
		C171.79,157.65,172.92,158.46,174.21,159.35z"/>
	<path class="st1" d="M192.38,147.23v4.56c-1.4-0.78-2.72-1.55-3.96-2.29v-4.63C189.62,145.6,190.94,146.39,192.38,147.23z"/>
	<path class="st1" d="M174.21,122.88v15.73c-1.77-2.34-2.66-4.91-2.66-7.71C171.55,128,172.43,125.33,174.21,122.88z"/>
	<path class="st1" d="M192.38,115.68v4c-1.01-0.14-2.03-0.21-3.07-0.21c-0.3,0-0.6,0.01-0.89,0.02v-3.97
		c0.3-0.01,0.59-0.02,0.89-0.02C190.35,115.5,191.37,115.56,192.38,115.68z"/>
	<path class="st1" d="M192.38,105.76v3.97c-1.08-0.1-2.16-0.15-3.21-0.15c-0.25,0-0.5,0-0.74,0.02v-3.97
		c0.25-0.01,0.49-0.01,0.74-0.01C190.23,105.62,191.3,105.67,192.38,105.76z"/>
	<path class="st1" d="M174.21,108.6v4.39c-1.39,0.72-2.71,1.57-3.96,2.53v-4.82C171.51,109.91,172.83,109.21,174.21,108.6z"/>
	<path class="st1" d="M192.38,119.67v27.55c-1.45-0.84-2.76-1.62-3.96-2.36v-25.38c0.29-0.02,0.59-0.02,0.89-0.02
		C190.35,119.46,191.37,119.53,192.38,119.67z"/>
	<path class="st1" d="M209.34,192.21c-1.54,0.07-3.1,0.1-4.7,0.1H171c-0.53-1.16-1.04-2.47-1.51-3.96h35.15
		c1.31,0,2.6-0.02,3.86-0.07C209.05,189.63,209.33,190.93,209.34,192.21z"/>
	<path class="st1" d="M192.38,170.23v4.54c-1.19-0.67-2.5-1.42-3.96-2.24v-4.54c0.25,0.14,0.49,0.28,0.74,0.42
		C190.3,169.05,191.37,169.65,192.38,170.23z"/>
	<path class="st1" d="M253.77,110.08c-4.76-7.95-11.06-13.62-18.88-17.03c-7.82-3.41-19.24-5.11-34.24-5.11h-40.88v2.74h3.78
		c3.8,0,6.66,1.09,8.59,3.26c1.37,1.58,2.06,5.5,2.06,11.77v2.88c4.25-1.89,9-2.88,14.22-2.97v-9.91
		c5.68-1.42,10.74-2.14,15.19-2.14c11.84,0,21.54,3.99,29.09,11.99c7.56,8.01,11.33,18.94,11.33,32.81
		c0,13.77-3.77,24.69-11.33,32.73c-1.45,1.55-2.97,2.95-4.57,4.2c1.23,2.91,1.98,5.94,2.23,9.05c7.17-2.61,13.1-6.51,17.82-11.7
		c8.5-9.37,12.74-21.05,12.74-35.02C260.92,127.21,258.54,118.03,253.77,110.08z M209.94,182.8c0.51,0.68,0.95,1.38,1.33,2.08
		c0.57,1.06,1.02,2.11,1.35,3.16c4.99-0.41,9.61-1.22,13.85-2.43c-0.12-2.74-0.67-5.4-1.67-7.99
		C220.35,180.38,215.4,182.11,209.94,182.8z M207.79,186.76c-0.67-1.23-1.59-2.44-2.76-3.6c-0.27,0.01-0.55,0.01-0.84,0.01
		c-4.24,0-9.5-0.69-15.77-2.08v-8.56c-0.39-0.22-0.78-0.44-1.18-0.67c-5.29-2.96-9.6-5.53-13.04-7.77v6.49
		c0,5.67-0.53,9.33-1.62,10.96c-0.99,1.51-2.35,2.59-4.09,3.27c-1.14,0.43-2.43,0.69-3.88,0.77c-0.34,0.02-0.7,0.03-1.06,0.03h-3.78
		v2.74h44.87c1.3,0,2.59-0.02,3.86-0.07C208.3,187.78,208.07,187.28,207.79,186.76z M174.73,139.27c-0.19-0.22-0.36-0.44-0.53-0.66
		v20.73c3.49,2.39,8.24,5.28,14.22,8.65v-18.5C181.55,145.41,176.98,142,174.73,139.27z M174.2,112.99v9.89
		c0.66-0.93,1.46-1.82,2.38-2.68c3.16-2.95,7.11-4.51,11.84-4.69v-5.92C183.08,109.68,178.34,110.81,174.2,112.99z"/>
	<path class="st1" d="M212.62,188.04c-1.35,0.11-2.72,0.19-4.12,0.25c-0.2-0.5-0.44-1.01-0.71-1.52c-0.67-1.23-1.59-2.44-2.76-3.6
		c1.68-0.03,3.32-0.14,4.91-0.36c0.51,0.68,0.95,1.38,1.33,2.08C211.84,185.94,212.3,186.99,212.62,188.04z"/>
	<path class="st1" d="M179.28,123.09c-2.54,2.38-3.78,4.93-3.78,7.81c0,2.12,0.74,4.02,2.25,5.82c1.34,1.62,4.27,4.2,10.67,8.15
		v4.63c-6.87-4.09-11.44-7.49-13.7-10.23c-0.18-0.21-0.36-0.44-0.52-0.66v-15.73c0.66-0.93,1.46-1.81,2.38-2.68
		c3.16-2.95,7.11-4.51,11.84-4.69v3.97C184.71,119.64,181.71,120.83,179.28,123.09z"/>
	<path class="st1" d="M188.43,105.63v3.97c-5.34,0.09-10.09,1.22-14.22,3.4v-4.39C178.45,106.71,183.2,105.72,188.43,105.63z"/>
	<path class="st1" d="M188.43,119.48v25.38c-6.41-3.95-9.33-6.53-10.67-8.15c-1.51-1.8-2.25-3.7-2.25-5.82
		c0-2.87,1.24-5.43,3.78-7.81C181.71,120.83,184.71,119.64,188.43,119.48z"/>
	<path class="st1" d="M188.43,167.99v4.54c-0.39-0.21-0.78-0.44-1.19-0.67c-5.28-2.96-9.6-5.53-13.03-7.77v-4.75
		C177.7,161.74,182.44,164.62,188.43,167.99z"/>
	<path class="st1" d="M223.78,105.62v42.64h-10.17l-0.46-3.44c-0.82-6.11-2.25-10.97-4.28-14.46c-1.94-3.34-4.66-5.93-8.29-7.92
		c-2.7-1.47-5.42-2.4-8.21-2.78v-4c3.45,0.41,6.82,1.5,10.11,3.3c4.25,2.33,7.52,5.45,9.82,9.41c2.3,3.95,3.89,9.26,4.77,15.92h2.74
		v-34.73h-2.74c-0.5,2.32-1.15,3.86-1.96,4.62c-0.82,0.77-1.86,1.15-3.14,1.15c-1.14,0-3.09-0.62-5.85-1.85
		c-4.79-2.09-9.37-3.35-13.74-3.77v-3.97c4.9,0.42,10.04,1.8,15.33,4.11c3.24,1.45,4.24,1.52,4.29,1.52c0.12,0,0.29-0.02,0.37-0.05
		c0.11-0.19,0.47-0.86,0.84-2.6l0.67-3.13H223.78z"/>
</g>
</svg>
