<?xml version="1.0" encoding="UTF-8"?>
<svg id="Layer_1" data-name="Layer 1" xmlns="http://www.w3.org/2000/svg" viewBox="0 0 159.37 198.02">
  <defs>
    <style>
      .cls-1 {
        stroke: #000;
        stroke-miterlimit: 10;
        stroke-width: 4px;
      }

      .cls-1, .cls-2 {
        fill: none;
      }

      .cls-3 {
        fill: #fff;
      }
    </style>
  </defs>
  <rect class="cls-1" x="2" y="2" width="155.37" height="194.02" rx="74.65" ry="74.65"/>
  <g>
    <path class="cls-2" d="m88.7,146.3c0,4.44-1.79,8.3-5.37,11.55-3.58,3.26-8.46,4.89-14.62,4.89-5.34,0-10.24-1.19-14.7-3.55-4.47-2.38-7.79-5.34-9.96-8.92-.7-1.15-1.35-2.49-1.95-4.01h4.29c.34.71.68,1.37,1.04,1.96,1.79,2.95,4.62,5.46,8.43,7.48,3.87,2.05,8.19,3.1,12.85,3.1,5.19,0,9.1-1.27,11.96-3.86,2.75-2.5,4.08-5.32,4.08-8.63,0-.05,0-.1,0-.15,1.35-.06,2.67-.14,3.96-.26,0,.14,0,.28,0,.41Z"/>
    <path class="cls-2" d="m35.16,89.95c0,4.14.93,7.95,2.81,11.4,1.77,3.26,4.33,6.27,7.66,9v4.99c-.67-.49-1.29-.95-1.86-1.4-4.03-3.18-7.16-6.79-9.28-10.7-2.19-4.02-3.29-8.49-3.29-13.29,0-8.31,3.21-15.55,9.53-21.51,1.53-1.44,3.17-2.71,4.9-3.8v4.82c-.75.58-1.48,1.2-2.19,1.86-5.53,5.21-8.29,11.42-8.29,18.63Z"/>
    <path class="cls-2" d="m101.7,125.63c-1.04.86-2.11,1.63-3.21,2.34-1.81-3.17-4.24-5.96-7.31-8.37-3.43-2.68-9.83-6.55-19.22-11.58-1.46-.78-2.87-1.55-4.19-2.3v-4.56c1.81,1.05,3.82,2.16,6.06,3.36,9.67,5.19,16.14,9.1,19.79,11.96,3.33,2.62,6.05,5.68,8.08,9.14Z"/>
    <path class="cls-2" d="m81.93,133.08c-.77.04-1.55.06-2.34.06-1.44,0-3.02-.09-4.74-.26-1.59-.99-3.86-2.34-7.07-4.18v-4.54c6.7,3.79,10.89,6.34,12.56,7.62.56.43,1.09.86,1.6,1.3Z"/>
    <path class="cls-2" d="m105.79,142.45c-.45,7.93-3.83,14.89-10.05,20.7-6.63,6.18-15.19,9.32-25.47,9.32-3.13,0-6.12-.25-8.9-.72-1.06-.17-3.33-.67-10.05-2.84-6.18-2-7.7-2.13-7.94-2.14h-.05c-.13.33-.35,1.02-.54,2.33l-.51,3.37h-10.11v-26.22h3.96v22.26h2.74c.35-2.32.88-3.85,1.59-4.59.72-.74,1.69-1.11,2.93-1.11s4.33.78,9.14,2.34c4.81,1.55,7.98,2.45,9.52,2.7,2.57.44,5.3.67,8.22.67,9.28,0,16.87-2.75,22.77-8.26,5.08-4.74,7.98-10.27,8.69-16.58,1.39-.36,2.76-.78,4.07-1.23Z"/>
    <path d="m43.88,138.75c-1.14.43-2.43.69-3.88.77-.34.02-.7.03-1.06.03h-3.78v2.74h9.71c-.34-1.09-.68-2.27-.99-3.54Zm57.98.8c-.12-2.74-.67-5.4-1.67-7.99-.31-.82-.68-1.63-1.09-2.44-.2-.39-.4-.77-.62-1.15-1.8-3.18-4.23-5.96-7.31-8.37-3.42-2.68-9.83-6.55-19.21-11.58-1.47-.79-2.87-1.55-4.19-2.3-1.4-.78-2.71-1.55-3.96-2.29-6.87-4.08-11.44-7.49-13.69-10.22-.19-.22-.36-.44-.53-.66-1.77-2.35-2.66-4.91-2.66-7.71s.89-5.58,2.66-8.02c.66-.93,1.46-1.82,2.38-2.68,3.16-2.95,7.11-4.51,11.84-4.69.3,0,.6-.01.9-.01,1.03,0,2.05.05,3.06.17,3.45.41,6.83,1.51,10.11,3.3,4.25,2.33,7.52,5.46,9.82,9.41,2.3,3.95,3.89,9.25,4.77,15.92h2.74v-34.72h-2.74c-.5,2.32-1.14,3.85-1.96,4.62-.82.77-1.86,1.15-3.14,1.15-1.14,0-3.09-.62-5.85-1.86-4.79-2.09-9.38-3.34-13.75-3.76-1.08-.11-2.16-.15-3.21-.15-.25,0-.5,0-.75,0-5.34.09-10.08,1.22-14.22,3.4-1.39.72-2.7,1.57-3.96,2.53-.75.58-1.48,1.2-2.18,1.86-5.53,5.21-8.29,11.42-8.29,18.63,0,4.14.93,7.95,2.81,11.4,1.77,3.26,4.33,6.27,7.66,9,.2.16.4.32.6.48.95.75,2.07,1.57,3.36,2.45,3.49,2.39,8.24,5.28,14.22,8.65.25.14.49.28.75.42,1.13.63,2.2,1.23,3.21,1.81,6.7,3.79,10.89,6.34,12.56,7.63.56.42,1.09.85,1.6,1.29,1.34,1.18,2.48,2.4,3.4,3.66.51.68.95,1.38,1.33,2.08.57,1.06,1.02,2.11,1.35,3.16.41,1.31.64,2.62.68,3.91.01.14.01.27.01.41,0,4.44-1.79,8.3-5.37,11.55-3.58,3.26-8.46,4.89-14.62,4.89-5.34,0-10.24-1.19-14.71-3.55-4.46-2.38-7.79-5.35-9.96-8.93-.69-1.14-1.34-2.48-1.94-4.01h-5.98v22.26h2.74c.35-2.32.88-3.84,1.59-4.59.72-.73,1.69-1.11,2.93-1.11s4.33.78,9.14,2.34c4.82,1.55,7.98,2.45,9.52,2.7,2.56.44,5.3.66,8.22.66,9.28,0,16.87-2.74,22.77-8.25,5.08-4.75,7.98-10.27,8.68-16.58.11-1.01.17-2.04.17-3.08,0-.35-.01-.7-.02-1.05Z"/>
    <path class="cls-2" d="m43.03,134.79c-.85.44-2.07.78-3.89.79-.1-.49-.19-.99-.28-1.5h-2.74v1.51h-3.96v-5.47h10.02l.59,3.26c.09.48.17.95.26,1.41Z"/>
    <path class="cls-2" d="m40,139.52c-.34.02-.7.03-1.06.03h-2.82v2.74h4.61c-.25-.88-.5-1.8-.73-2.77Zm61.86.03c-.12-2.74-.67-5.4-1.67-7.99-.31-.82-.68-1.63-1.09-2.44-.2-.39-.4-.77-.62-1.15-1.8-3.18-4.23-5.96-7.31-8.37-3.42-2.68-9.83-6.55-19.21-11.58-1.47-.79-2.87-1.55-4.19-2.3-1.4-.78-2.71-1.55-3.96-2.29-6.87-4.08-11.44-7.49-13.69-10.22-.19-.22-.36-.44-.53-.66-1.77-2.35-2.66-4.91-2.66-7.71s.89-5.58,2.66-8.02c.66-.93,1.46-1.82,2.38-2.68,3.16-2.95,7.11-4.51,11.84-4.69.3,0,.6-.01.9-.01,1.03,0,2.05.05,3.06.17,3.45.41,6.83,1.51,10.11,3.3,4.25,2.33,7.52,5.46,9.82,9.41,2.3,3.95,3.89,9.25,4.77,15.92h2.74v-34.72h-2.74c-.5,2.32-1.14,3.85-1.96,4.62-.82.77-1.86,1.15-3.14,1.15-1.14,0-3.09-.62-5.85-1.86-4.79-2.09-9.38-3.34-13.75-3.76-1.08-.11-2.16-.15-3.21-.15-.25,0-.5,0-.75,0-5.34.09-10.08,1.22-14.22,3.4-1.39.72-2.7,1.57-3.96,2.53-.75.58-1.48,1.2-2.18,1.86-5.53,5.21-8.29,11.42-8.29,18.63,0,4.14.93,7.95,2.81,11.4,1.77,3.26,4.33,6.27,7.66,9,.2.16.4.32.6.48.95.75,2.07,1.57,3.36,2.45,3.49,2.39,8.24,5.28,14.22,8.65.25.14.49.28.75.42,1.13.63,2.2,1.23,3.21,1.81,6.7,3.79,10.89,6.34,12.56,7.63.56.42,1.09.85,1.6,1.29,1.34,1.18,2.48,2.4,3.4,3.66.51.68.95,1.38,1.33,2.08.57,1.06,1.02,2.11,1.35,3.16.41,1.31.64,2.62.68,3.91.01.14.01.27.01.41,0,4.44-1.79,8.3-5.37,11.55-3.58,3.26-8.46,4.89-14.62,4.89-5.34,0-10.24-1.19-14.71-3.55-4.46-2.38-7.79-5.35-9.96-8.93-.69-1.14-1.34-2.48-1.94-4.01h-5.98v22.26h2.74c.35-2.32.88-3.84,1.59-4.59.72-.73,1.69-1.11,2.93-1.11s4.33.78,9.14,2.34c4.82,1.55,7.98,2.45,9.52,2.7,2.56.44,5.3.66,8.22.66,9.28,0,16.87-2.74,22.77-8.25,5.08-4.75,7.98-10.27,8.68-16.58.11-1.01.17-2.04.17-3.08,0-.35-.01-.7-.02-1.05Z"/>
    <path class="cls-2" d="m39.14,135.59c-.06,0-.13,0-.2,0h-2.82v-1.51h2.74c.09.51.18,1.01.28,1.5Z"/>
    <path d="m63.81,103.43v18.5c.25.14.49.28.75.42,1.13.63,2.2,1.23,3.21,1.81v-18.44c-1.4-.78-2.71-1.55-3.96-2.29Zm0,0v18.5c.25.14.49.28.75.42,1.13.63,2.2,1.23,3.21,1.81v-18.44c-1.4-.78-2.71-1.55-3.96-2.29Zm0,0v18.5c.25.14.49.28.75.42,1.13.63,2.2,1.23,3.21,1.81v-18.44c-1.4-.78-2.71-1.55-3.96-2.29Zm0,0v18.5c.25.14.49.28.75.42,1.13.63,2.2,1.23,3.21,1.81v-18.44c-1.4-.78-2.71-1.55-3.96-2.29Zm0,0v18.5c.25.14.49.28.75.42,1.13.63,2.2,1.23,3.21,1.81v-18.44c-1.4-.78-2.71-1.55-3.96-2.29Zm0,0v18.5c.25.14.49.28.75.42,1.13.63,2.2,1.23,3.21,1.81v-18.44c-1.4-.78-2.71-1.55-3.96-2.29Zm0,0v18.5c.25.14.49.28.75.42,1.13.63,2.2,1.23,3.21,1.81v-18.44c-1.4-.78-2.71-1.55-3.96-2.29Zm0,0v18.5c.25.14.49.28.75.42,1.13.63,2.2,1.23,3.21,1.81v-18.44c-1.4-.78-2.71-1.55-3.96-2.29Zm0,0v18.5c.25.14.49.28.75.42,1.13.63,2.2,1.23,3.21,1.81v-18.44c-1.4-.78-2.71-1.55-3.96-2.29Zm65.35-39.41c-4.76-7.95-11.06-13.62-18.88-17.03-7.82-3.41-19.24-5.11-34.24-5.11h-40.88v2.74h3.78c3.8,0,6.66,1.09,8.59,3.26,1.37,1.58,2.06,5.5,2.06,11.77v2.88c4.25-1.89,9-2.88,14.22-2.97v-9.91c5.68-1.42,10.74-2.14,15.19-2.14,11.84,0,21.54,3.99,29.09,11.99,7.56,8.01,11.33,18.94,11.33,32.81s-3.77,24.69-11.33,32.73c-1.45,1.55-2.97,2.95-4.57,4.2,1.23,2.91,1.98,5.94,2.23,9.05,7.17-2.61,13.1-6.51,17.82-11.7,8.5-9.37,12.74-21.05,12.74-35.02,0-10.42-2.38-19.6-7.15-27.55Zm-28.97,67.54c-.31-.82-.68-1.63-1.09-2.44-.2-.39-.4-.77-.62-1.15-4.83,3.1-10.31,4.78-16.55,5.11,1.34,1.18,2.48,2.4,3.4,3.66.51.68.95,1.38,1.33,2.08.57,1.06,1.02,2.11,1.35,3.16.41,1.31.64,2.62.68,3.91,4.64-.4,8.98-1.14,13.02-2.21.11-1.01.17-2.04.17-3.08,0-.35-.01-.7-.02-1.05-.12-2.74-.67-5.4-1.67-7.99Zm-36.38-28.13v18.5c.25.14.49.28.75.42,1.13.63,2.2,1.23,3.21,1.81v-18.44c-1.4-.78-2.71-1.55-3.96-2.29Zm0,0v18.5c.25.14.49.28.75.42,1.13.63,2.2,1.23,3.21,1.81v-18.44c-1.4-.78-2.71-1.55-3.96-2.29Zm0,0v18.5c.25.14.49.28.75.42,1.13.63,2.2,1.23,3.21,1.81v-18.44c-1.4-.78-2.71-1.55-3.96-2.29Zm0,0v18.5c.25.14.49.28.75.42,1.13.63,2.2,1.23,3.21,1.81v-18.44c-1.4-.78-2.71-1.55-3.96-2.29Zm0,0v18.5c.25.14.49.28.75.42,1.13.63,2.2,1.23,3.21,1.81v-18.44c-1.4-.78-2.71-1.55-3.96-2.29Zm0,0v18.5c.25.14.49.28.75.42,1.13.63,2.2,1.23,3.21,1.81v-18.44c-1.4-.78-2.71-1.55-3.96-2.29Zm19.37,37.27c-.67-1.23-1.59-2.44-2.76-3.6-.27.01-.55.01-.84.01-4.24,0-9.5-.69-15.77-2.08v-8.56c-.39-.22-.78-.44-1.18-.67-5.29-2.96-9.6-5.53-13.04-7.77v6.49c0,5.67-.53,9.33-1.62,10.96-.99,1.51-2.35,2.59-4.09,3.27-1.14.43-2.43.69-3.88.77-.34.02-.7.03-1.06.03h-3.78v2.74h44.87c1.3,0,2.59-.02,3.86-.07-.2-.5-.43-1-.71-1.52Zm-19.37-37.27v18.5c.25.14.49.28.75.42,1.13.63,2.2,1.23,3.21,1.81v-18.44c-1.4-.78-2.71-1.55-3.96-2.29Zm0,0v18.5c.25.14.49.28.75.42,1.13.63,2.2,1.23,3.21,1.81v-18.44c-1.4-.78-2.71-1.55-3.96-2.29Zm0,0v18.5c.25.14.49.28.75.42,1.13.63,2.2,1.23,3.21,1.81v-18.44c-1.4-.78-2.71-1.55-3.96-2.29Zm-11.84-29.29c3.16-2.95,7.11-4.51,11.84-4.69.3,0,.6-.01.9-.01,1.03,0,2.05.05,3.06.17v-5.94c-1.08-.11-2.16-.15-3.21-.15-.25,0-.5,0-.75,0-5.34.09-10.08,1.22-14.22,3.4-1.39.72-2.7,1.57-3.96,2.53v40.89c.2.16.4.32.6.48.95.75,2.07,1.57,3.36,2.45,3.49,2.39,8.24,5.28,14.22,8.65.25.14.49.28.75.42,1.13.63,2.2,1.23,3.21,1.81v-18.44c-1.4-.78-2.71-1.55-3.96-2.29-6.87-4.08-11.44-7.49-13.69-10.22-.19-.22-.36-.44-.53-.66-1.77-2.35-2.66-4.91-2.66-7.71s.89-5.58,2.66-8.02c.66-.93,1.46-1.82,2.38-2.68Z"/>
    <path class="cls-2" d="m103.52,129.24c-1.08.84-2.19,1.61-3.33,2.32-.31-.82-.68-1.63-1.09-2.44-.2-.39-.4-.77-.62-1.15,1.11-.71,2.18-1.49,3.22-2.34.33.56.64,1.12.93,1.7.33.63.62,1.27.89,1.91Z"/>
    <path class="cls-2" d="m119.43,92.31c0,13.77-3.78,24.69-11.33,32.73-1.46,1.55-2.98,2.95-4.58,4.2-.27-.64-.56-1.27-.89-1.91-.29-.58-.6-1.14-.93-1.7,1.22-1,2.39-2.1,3.52-3.29,6.8-7.25,10.25-17.35,10.25-30.02s-3.44-22.89-10.24-30.09c-6.84-7.24-15.41-10.76-26.22-10.76-3.32,0-7.08.45-11.23,1.33v6.9c-1.08-.1-2.15-.14-3.21-.14-.25,0-.5,0-.74,0v-9.91c5.68-1.43,10.74-2.15,15.19-2.15,11.84,0,21.54,4,29.1,11.99,7.55,8,11.33,18.94,11.33,32.81Z"/>
    <path class="cls-2" d="m105.84,140.6c0,.62-.02,1.24-.06,1.85-1.31.45-2.67.86-4.07,1.23.11-1.01.17-2.04.17-3.08,0-.35-.01-.7-.02-1.05,1.33-.38,2.63-.8,3.89-1.26.06.76.09,1.53.09,2.31Z"/>
    <path class="cls-2" d="m140.27,91.57c0,14.92-4.63,27.6-13.76,37.69-5.43,5.96-12.36,10.37-20.73,13.2.04-.61.06-1.23.06-1.85,0-.78-.03-1.54-.09-2.31,7.17-2.6,13.1-6.51,17.82-11.69,8.5-9.37,12.74-21.05,12.74-35.03,0-10.41-2.38-19.6-7.15-27.54-4.77-7.95-11.06-13.63-18.88-17.03-7.82-3.41-19.24-5.11-34.24-5.11h-40.88v2.74h3.78c3.8,0,6.66,1.09,8.59,3.26,1.38,1.58,2.07,5.5,2.07,11.77v2.88c-1.38.61-2.69,1.31-3.96,2.11v-4.99c0-7.54-1.07-9.14-1.12-9.2-1.11-1.24-2.95-1.88-5.58-1.88h-7.74v-10.66h44.84c15.7,0,27.42,1.78,35.83,5.44,8.56,3.73,15.52,10,20.7,18.63,5.11,8.53,7.71,18.49,7.71,29.58Z"/>
    <polygon class="cls-2" points="35.16 139.55 35.16 142.29 36.12 142.29 36.12 146.25 31.21 146.25 31.21 135.59 36.12 135.59 36.12 139.55 35.16 139.55"/>
    <path class="cls-2" d="m49.6,118.03v6.48c0,5.68-.54,9.33-1.62,10.97-.99,1.5-2.35,2.59-4.09,3.26-.3-1.24-.59-2.55-.86-3.95.84-.44,1.32-1,1.63-1.48.06-.09.98-1.65.98-8.8v-9.18c1.16.84,2.48,1.73,3.96,2.69Z"/>
    <path class="cls-2" d="m43.88,138.75c-1.13.44-2.42.7-3.88.78-.31-1.24-.59-2.55-.86-3.93,1.82-.02,3.04-.35,3.89-.79.27,1.4.55,2.72.86,3.95Z"/>
    <path class="cls-2" d="m46.39,146.25h-4.29c-.48-1.2-.93-2.53-1.36-3.96h4.14c.48,1.49.98,2.8,1.51,3.96Z"/>
    <path class="cls-2" d="m42.1,146.25h-5.98v-3.96h4.62c.43,1.43.88,2.76,1.36,3.96Z"/>
    <path class="cls-2" d="m40,139.52c-.34.02-.7.03-1.06.03h-2.82v-3.96h2.82c.06,0,.13,0,.2,0,.27,1.39.55,2.69.86,3.93Z"/>
    <path class="cls-2" d="m88.69,145.89c-1.29.12-2.61.2-3.96.26-.02-1.28-.29-2.58-.84-3.93,1.4-.06,2.77-.13,4.12-.25.41,1.31.64,2.62.68,3.91Z"/>
    <path class="cls-2" d="m80.43,137.1c-.28,0-.55,0-.84,0-4.24,0-9.5-.69-15.77-2.07v-8.57c1.46.82,2.77,1.57,3.96,2.24v3.1c2.57.5,4.92.86,7.07,1.08,1.65,1.02,2.58,1.65,3.1,2.05.93.7,1.75,1.43,2.49,2.16Z"/>
    <path class="cls-2" d="m85.34,136.74c-1.59.21-3.23.32-4.91.36-.74-.74-1.56-1.46-2.49-2.16-.51-.4-1.44-1.03-3.1-2.05,1.73.17,3.3.26,4.74.26.79,0,1.58-.02,2.34-.06,1.34,1.17,2.48,2.39,3.4,3.66Z"/>
    <path class="cls-2" d="m49.6,113.28v4.75c-1.48-.96-2.8-1.85-3.96-2.69v-4.99c.2.16.4.32.59.48.95.75,2.07,1.57,3.36,2.45Z"/>
    <path class="cls-2" d="m67.78,101.16v4.56c-1.4-.78-2.72-1.55-3.96-2.29v-4.63c1.2.74,2.51,1.52,3.96,2.36Z"/>
    <path class="cls-2" d="m49.6,76.82v15.73c-1.77-2.34-2.66-4.91-2.66-7.71s.89-5.57,2.66-8.02Z"/>
    <path class="cls-2" d="m67.78,69.61v4c-1.01-.14-2.03-.21-3.07-.21-.3,0-.6,0-.89.02v-3.97c.3,0,.59-.02.89-.02,1.03,0,2.05.06,3.06.17Z"/>
    <path class="cls-2" d="m67.78,59.7v3.97c-1.08-.1-2.16-.15-3.21-.15-.25,0-.5,0-.74.02v-3.97c.25,0,.49,0,.74,0,1.06,0,2.13.05,3.21.14Z"/>
    <path class="cls-2" d="m49.6,62.53v4.39c-1.39.72-2.71,1.57-3.96,2.53v-4.82c1.27-.79,2.58-1.5,3.96-2.11Z"/>
    <path class="cls-2" d="m67.78,73.61v27.55c-1.45-.84-2.76-1.62-3.96-2.36v-25.38c.29-.02.59-.02.89-.02,1.04,0,2.06.07,3.07.21Z"/>
    <path class="cls-2" d="m84.73,146.15c-1.54.07-3.1.1-4.7.1h-33.64c-.53-1.16-1.04-2.47-1.51-3.96h35.15c1.31,0,2.6-.02,3.86-.07.55,1.35.82,2.64.84,3.93Z"/>
    <path class="cls-2" d="m67.78,124.16v4.54c-1.19-.67-2.5-1.42-3.96-2.24v-4.54c.25.14.49.28.74.42,1.13.63,2.2,1.24,3.21,1.81Z"/>
    <path class="cls-2" d="m129.16,64.02c-4.76-7.95-11.06-13.62-18.88-17.03-7.82-3.41-19.24-5.11-34.24-5.11h-40.88v2.74h3.78c3.8,0,6.66,1.09,8.59,3.26,1.37,1.58,2.06,5.5,2.06,11.77v2.88c4.25-1.89,9-2.88,14.22-2.97v-9.91c5.68-1.42,10.74-2.14,15.19-2.14,11.84,0,21.54,3.99,29.09,11.99,7.56,8.01,11.33,18.94,11.33,32.81s-3.77,24.69-11.33,32.73c-1.45,1.55-2.97,2.95-4.57,4.2,1.23,2.91,1.98,5.94,2.23,9.05,7.17-2.61,13.1-6.51,17.82-11.7,8.5-9.37,12.74-21.05,12.74-35.02,0-10.42-2.38-19.6-7.15-27.55Zm-43.83,72.72c.51.68.95,1.38,1.33,2.08.57,1.06,1.02,2.11,1.35,3.16,4.99-.41,9.61-1.22,13.85-2.43-.12-2.74-.67-5.4-1.67-7.99-4.45,2.76-9.4,4.49-14.86,5.18Zm-2.15,3.96c-.67-1.23-1.59-2.44-2.76-3.6-.27.01-.55.01-.84.01-4.24,0-9.5-.69-15.77-2.08v-8.56c-.39-.22-.78-.44-1.18-.67-5.29-2.96-9.6-5.53-13.04-7.77v6.49c0,5.67-.53,9.33-1.62,10.96-.99,1.51-2.35,2.59-4.09,3.27-1.14.43-2.43.69-3.88.77-.34.02-.7.03-1.06.03h-3.78v2.74h44.87c1.3,0,2.59-.02,3.86-.07-.2-.5-.43-1-.71-1.52Zm-33.06-47.49c-.19-.22-.36-.44-.53-.66v20.73c3.49,2.39,8.24,5.28,14.22,8.65v-18.5c-6.87-4.08-11.44-7.49-13.69-10.22Zm-.53-26.28v9.89c.66-.93,1.46-1.82,2.38-2.68,3.16-2.95,7.11-4.51,11.84-4.69v-5.92c-5.34.09-10.08,1.22-14.22,3.4Z"/>
    <path class="cls-3" d="m105.75,138.29c-1.26.46-2.56.88-3.89,1.26-.12-2.74-.67-5.4-1.67-7.99,1.14-.71,2.25-1.48,3.33-2.32,1.23,2.91,1.98,5.94,2.23,9.05Z"/>
    <path class="cls-2" d="m88.01,141.98c-1.35.11-2.72.19-4.12.25-.2-.5-.44-1.01-.71-1.52-.67-1.23-1.59-2.44-2.76-3.6,1.68-.03,3.32-.14,4.91-.36.51.68.95,1.38,1.33,2.08.57,1.05,1.02,2.11,1.35,3.15Z"/>
    <path class="cls-2" d="m54.67,77.03c-2.54,2.38-3.78,4.93-3.78,7.81,0,2.12.74,4.02,2.25,5.82,1.34,1.62,4.27,4.2,10.67,8.15v4.63c-6.87-4.09-11.44-7.49-13.7-10.23-.18-.21-.36-.44-.52-.66v-15.73c.66-.93,1.46-1.81,2.38-2.68,3.16-2.95,7.11-4.51,11.84-4.69v3.97c-3.71.16-6.71,1.35-9.14,3.61Z"/>
    <path class="cls-2" d="m63.82,59.57v3.97c-5.34.09-10.09,1.22-14.22,3.4v-4.39c4.24-1.89,8.99-2.88,14.22-2.97Z"/>
    <path class="cls-2" d="m63.82,73.42v25.38c-6.41-3.95-9.33-6.53-10.67-8.15-1.51-1.8-2.25-3.7-2.25-5.82,0-2.87,1.24-5.43,3.78-7.81,2.43-2.26,5.43-3.45,9.14-3.61Z"/>
    <path class="cls-2" d="m63.82,121.93v4.54c-.39-.21-.78-.44-1.19-.67-5.28-2.96-9.6-5.53-13.03-7.77v-4.75c3.49,2.39,8.23,5.27,14.22,8.65Z"/>
    <path class="cls-2" d="m99.18,59.56v42.64h-10.17l-.46-3.44c-.82-6.11-2.25-10.97-4.28-14.46-1.94-3.34-4.66-5.93-8.29-7.92-2.7-1.47-5.42-2.4-8.21-2.78v-4c3.45.41,6.82,1.5,10.11,3.3,4.25,2.33,7.52,5.45,9.82,9.41,2.3,3.95,3.89,9.26,4.77,15.92h2.74v-34.73h-2.74c-.5,2.32-1.15,3.86-1.96,4.62-.82.77-1.86,1.15-3.14,1.15-1.14,0-3.09-.62-5.85-1.85-4.79-2.09-9.37-3.35-13.74-3.77v-3.97c4.9.42,10.04,1.8,15.33,4.11,3.24,1.45,4.24,1.52,4.29,1.52.12,0,.29-.02.37-.05.11-.19.47-.86.84-2.6l.67-3.13h9.9Z"/>
  </g>
</svg>